<?xml version="1.0" encoding="UTF-8"?>
<svg enable-background="new 0 0 139.576 251.329" viewBox="0 0 139.576 251.329" xmlns="http://www.w3.org/2000/svg">
 <path d="m103 45.245c-7.323-14.932-16.284-28.229-39.48-27.287 20.662-2.927 34.577 10.614 39.48 27.287z" fill-rule="evenodd"/>
 <path d="m86.162,102.723c9.577-10.586 17.942-25.167 15.677-45.285-1.991-17.66-13.397-30.158-27.869-34.835-.163-1.038.548-1.192.581-.581 21.911,5.623 33.062,31.882 27.288,56.318-2.339,9.894-8.567,19.734-15.677,24.383z" fill-rule="evenodd"/>
 <path d="m94.87,24.925c.235-1.446 2.251-.034 1.743,1.161-.764-.206-.914-1.022-1.743-1.161z" fill-rule="evenodd"/>
 <path d="m97.773,26.666c11.309,11.341 17.057,36.626 11.03,58.059-1.734-1.587.774-3.835 0-6.385-2.632-.312-.388,4.253-2.901,4.063 5.91-17.373 1.164-40.199-9.289-52.253 .982-.563 1.49-1.605 1.16-3.484zm7.548,14.515c-1.378-3.461-2.693-6.982-5.226-9.289 1.8,3.04 2.842,6.836 5.226,9.289zm1.162,3.483c.596-1.63-.905-4.036-1.743-2.322 1.197.158.138,2.571 1.743,2.322zm1.16,6.968h1.16v-2.322h-1.16v2.322zm2.322,13.354c.146-2.603 1.058-10.637-1.741-12.193 1.164,3.479.579,8.709 1.741,12.193zm-1.162,9.87c1.781-1.333 2.178-7.092 1.162-9.291-.184,3.518-1.259,4.621-1.162,9.291z" fill-rule="evenodd"/>
 <path d="m105.902,59.76c.974-1.672.463,2.967.581,4.065-.974,1.671-.463-2.968-.581-4.065z" fill-rule="evenodd"/>
 <path d="m106.483,66.147c1.177.143 0,1.154 0,1.161 0,4.671-1.238,3.081 0-1.161z" fill-rule="evenodd"/>
 <path d="m127.383,67.308c.713.253 1.193.743 1.16,1.741-.713-.253-1.191-.743-1.16-1.741z" fill-rule="evenodd"/>
 <path d="m128.543,71.952c1.159-1.493 2.355,1.865 2.322,3.483-1.764-.168-.798-3.069-2.322-3.483z" fill-rule="evenodd"/>
 <path d="m105.321,73.113c.222-1.105.737.371.581,1.161-.223,1.106-.739-.37-.581-1.161z" fill-rule="evenodd"/>
 <path d="m104.74,76.597c.222-1.105.739.371.581,1.161-.223,1.106-.738-.371-.581-1.161z" fill-rule="evenodd"/>
 <path d="m125.642,84.725c.897.845 1.219,2.266 1.16,4.065-.898-.844-1.219-2.265-1.16-4.065z" fill-rule="evenodd"/>
 <path d="m122.158,89.371c.378-1.637.673,1.337.581,1.741-.27,1.165-1.092.469-.581-1.741z" fill-rule="evenodd"/>
 <path d="m73.388,92.854c-.875,1.834-3.639,1.78-6.386,1.741 1.402-1.307 4.191-1.227 6.386-1.741z" fill-rule="evenodd"/>
 <path d="m90.225,92.854c2.069,1.125-2.434,4.896-4.063,6.385-2.244,2.054-5.235,4.471-7.548,5.226 1.533-3.694 6.156-4.294 8.129-7.548-3.799.855-10.442,6.968-15.677,6.387 .954-1.538 3.035-1.738 4.645-2.322 3.449-1.254 7.068-2.58 9.289-5.806 2.91,1.148 3.954-.428 5.225-2.322z" fill-rule="evenodd"/>
 <path d="m80.936,95.176c.68.093.491,1.058.581,1.741-5.309,2.047-9.535,5.175-17.418,4.645 5.848-1.893 13.35-2.132 16.837-6.386z" fill-rule="evenodd"/>
 <path d="m119.835,95.756c.378-1.637.673,1.337.581,1.743-.269,1.165-1.091.467-.581-1.743z" fill-rule="evenodd"/>
 <path d="m75.71,96.337c-1.846,1.25-3.775,2.419-6.967,2.322 2.229-.867 4.158-2.036 6.967-2.322z" fill-rule="evenodd"/>
 <path d="m58.873,98.078c2.311.98 6.125.456 9.29.582-2.282,1.145-7.622,2.116-9.29-.582z" fill-rule="evenodd"/>
 <path d="m86.743,141.041c2.051.271 3.178,1.468 4.645,2.325-1.399,1.359-3.861-1.143-4.645-2.325z" fill-rule="evenodd"/>
 <path d="m85.581 149.75c4.067 1.157 5.735 4.713 6.969 8.707-3.15-2.076-4.229-6.223-6.969-8.707z" fill-rule="evenodd"/>
 <path d="m87.903,157.3c-.99-2.105-3.844-2.351-4.645-4.645 1.777-1.011 5.654,2.868 4.645,4.645z" fill-rule="evenodd"/>
 <path d="m46.682 154.4c3.167 1.282 2.771 6.13 5.225 8.129-1.769 0.449-4.191-5.055-5.225-8.129z" fill-rule="evenodd"/>
 <path d="m81.517,156.137c2.119-.378 3.092.393 4.063,1.163 .209,1.485-4.734,1.304-4.063-1.163z" fill-rule="evenodd"/>
 <path d="m135.51 186.33c2.051 0.678 3.397 4.432 2.322 6.386-1.453-1.451-2.535-3.273-2.322-6.386z" fill-rule="evenodd"/>
 <path d="m96.032,199.682c2.842.734-1.2,3.536-.581,5.807-1.576-1.427.632-3.979.581-5.807z" fill-rule="evenodd"/>
 <path d="m91.968,5.766c-.869,1.259-.992,3.268-1.162,5.225 1.611,2.418 5.527.619 6.967-.58 13.43,1.279 18.184,11.232 28.448,15.676 .68-.094.491-1.058.581-1.742 1.821.401.758,1.549.581,2.903 3.827,3.283 12.096,9.733 5.226,15.095 1.295,1.995 3.31,3.27 4.645,5.226 .246,1.213-.399,1.538-.581,2.322 2.013,1.472 2.863,4.104 2.903,7.548-1.37.18-1.08,2.017-2.903,1.741 3.822-5.286-4.35-6.767-3.484-12.772 1.528-.172.458,2.253 2.324,1.742-4.03-7.584-12.986-15.269-20.321-21.482 5.519,2.418 11.455,9.444 16.256,14.515 1.184-.172 1.547-1.162 2.322-1.741 .307-1.904-1.262-2.791-2.322-4.064-2.951-3.541-7.851-7.138-12.192-10.45-5.051-3.854-10.05-7.167-16.256-10.45-2.332-.203-1.531,2.727-2.903,3.483 2.884,6.67 10.059,2.149 14.515,6.967-.253.861-.742-.229-1.741,0 1.628,4.759 6.641,6.133 9.289,9.87-2.309.359-5.888-3.005-6.967-5.807-2.013-.465-2.23.866-4.063.581-1.271.394 1.101,1.929 1.741,2.322-.506,1.715-.869-1.347-2.322-.58 .481,1.389.524,4.985 4.063,4.645-2.92,2.123-4.305-2.257-5.807-3.483-.518-3.422 2.509-3.3 2.905-5.807-.007-2.123-1.148-3.11-2.324-4.063-2.377.138-3.27,1.761-5.805,1.741-2.605-.683-2.813-3.767-5.226-4.645 1.226-1.87 2.1-4.092 2.903-6.387-.17-1.184-1.571-1.138-1.743-2.322-2.46,1.023-4.413,2.553-6.386,4.064-2.119-.396-2.833-2.201-4.645-2.903 .425-2.091 2.1-2.932 1.741-5.806-.109-.47-.581-.579-.581-1.161-4.326-.649-4.371,2.984-6.965,4.064-3.09-.009-4.34-1.854-6.969-2.322 .283-2.991-.439-4.978-2.322-5.807-3.637-.154-2.951,4.016-4.645,5.807h-5.225c-.678-1.646-.805-3.84-2.322-4.645-4.043-.753-3.431,3.15-4.065,5.806-2.048.081-2.596,1.661-4.645,1.741-1.746-.964-2.16-3.259-4.064-4.063-3.801-.124-2.792,4.561-2.902,8.128-4.217,3.674-6.904-2.238-11.031.581 .489,4.967.601,7.085-2.322,9.289-2.056-.267-3.354-1.292-5.807-1.161-.837.71-.88,2.216-1.741,2.902-.099,2.421 1.78,2.864 1.741,5.226 .037,5.455-7.525,3.312-9.289,6.967-.17,2.88 2.312,3.106 3.483,4.645 .344,3.054-1.176,4.242-1.741,6.387-2.937-.419-4.183.851-5.226,2.322 .18,2.327.98,4.471 4.064,5.226 1.787,7.399-5.066,6.159-4.646,12.192 .706,2.197 3.797,2.008 5.226,3.483-.343,2.473.418,3.84.581,5.806-.434,2.276-3.423,1.997-3.484,4.645-.143,3.24 3.2,2.995 5.807,3.483 .352,1.778 1.232,3.025 1.741,4.646-.148,2.562-2.36,3.058-2.902,5.224 .056,3.01 2.992,2.243 5.225,1.743 4.568.784 5.013,7.839 1.161,9.87-.809-3.131-.514-4.75 0-8.129-8.686,3.063-9.316-6.359-6.386-11.031-2.055-1.234-4.908-1.671-6.387-3.483-.588-5.425 1.667-8.008 2.903-11.611-1.209-1.308-3.374-1.659-4.646-2.903-1.055-5.554 1.207-9.08 3.483-12.772-1.079-1.438-2.615-2.416-3.483-4.064 .362-5.056 3.42-7.417 5.807-10.45-1.007-1.121-1.314-2.943-2.323-4.064 1.193-5 5.628-6.758 8.709-9.87-.521-1.026-1.401-1.695-1.741-2.902 1.38-5.007 6.559-6.213 10.45-8.709v-4.064c4.14-2.633 10.083-3.463 12.192-8.128 3.374-.69 5.716-2.412 9.87-2.322 15.316-6.455 36.176-.438 51.673,2.903 .789,4.748 9.88,4.334 12.771,8.709 .718,1.878-1.878.443-1.16,2.322 2.164,1.512 4.472,2.881 6.386,4.645-2.192.024-3.983-1.667-5.807-2.903-7.51-5.108-17.13-9.618-26.703-12.78zm25.545,10.45v-1.741c-6.286-2.617-13.189-7.708-20.319-7.548 7.992,1.876 13.957,5.782 20.319,9.289zm2.904,7.548c-1.829-1.405-3.683-3.893-5.807-3.483 2.499,2.454 5.828,4.061 8.71,6.386 2.474,1.998 4.21,5.253 6.967,4.646-2.998-2.905-6.582-5.021-9.87-7.549zm-6.388-4.645c-3.359-1.871-7.338-6.201-11.03-5.807 3.604,1.627 8.01,5.53 11.03,5.807zm-49.93-13.934h4.064c.463-1.084.97-2.126 1.161-3.483h-5.806c-.421,1.775 1.003,1.707.581,3.483zm13.355,1.161c2.079.05 3.354.902 5.226,1.161 .929-1.779 3.08-2.336 3.482-4.645-3.894.216-6.109-1.245-9.87-1.161 .089,1.846 1.315,2.554 1.162,4.645zm-26.128-1.742c.19,1.356.698,2.398 1.161,3.483 2.922.406 3.827-1.205 3.483-4.064-1.672.07-3.801-.316-4.644.581zm47.028,1.162c.999.031 1.488-.448 1.741-1.161-.912.054-2.012-.079-1.741,1.161zm7.548,1.161c-1.633-.691-3.338-1.306-5.226-1.742 .34,1.623 4.167,2.761 5.226,1.742zm-67.349,5.224c1.674.262 1.817,2.055 4.064,1.742 1.249-.493 1.345-2.138 1.161-4.064-2.384.131-3.802,1.23-5.225,2.322zm-16.256,21.483c2.876-.773.906-2.743 0,0zm111.472,2.322c.002-1.403-2.032-3.711-2.903-2.322 1.348.392 1.553,1.929 2.903,2.322zm4.065,17.417v-1.161h-1.162v1.161h1.162zm-1.162-2.322c-2.345-2.042-1.37,1.867 0,0z" fill-rule="evenodd"/>
 <path d="m72.228,13.894c1.41,1.492 4.267,1.537 6.967,1.741 2.932,2.495 9.594,4.332 11.03,6.387-.397,1.401-2.911-.51-4.063-1.161-3.7-2.085-10.088-4.576-15.096-6.386-5.924.163-13.705,1.24-19.74,2.322-4.654,3.044-10.904,5.969-15.096,10.45-.89.951-.756,2.871-1.741,4.064-1.192,1.444-3.667,2.101-4.646,3.483-.707.998-1.37,3.988-2.322,5.806-3.871,7.389-8.046,18.98-6.386,33.093 .96,8.168 5.859,18.572 11.031,25.546 7.073,9.54 20.113,18.457 34.835,17.999 .906-1.028-1.667-1.383-1.742-1.161 .557-1.676 7.972-1.236 10.451-1.741 14.167-2.891 25.858-17.151 29.61-30.772 2.001,3.38-3.478,10.13-5.226,13.935 3.052-1.017 5.299-7.856 6.969-12.192-.135,4.366-3.015,10.9-5.807,15.094-4.553,6.836-12.311,13.138-22.062,16.257-11.428,3.655-25.707.92-34.255-4.064-6.597-3.846-10.447-8.115-15.096-14.515-7.177-9.88-11.734-24.492-9.869-40.061 1.468-12.265 9.65-27.354 18.578-34.835 6.591-5.522 15.5-10.513 26.127-11.031 10.217-.497 18.907,2.762 26.126,8.129-4.781-1.221-10.54-6.488-18.577-6.387zm11.03,99.28c7.463-2.41 14.43-8.404 16.256-14.515-4.534,5.722-9.332,11.182-16.256,14.515zm-4.644,1.742c1.731-.205 3.536-.335 4.065-1.741-1.488.447-3.293.578-4.065,1.741zm-8.71,1.742c3.887-.384 5.324.031 8.13-1.742-3.122.168-5.972.609-8.13,1.742z" fill-rule="evenodd"/>
 <path d="m119.835,38.858c.689,1.439.992,3.267 2.903,3.483-.879.444-3.716,1.325-2.322-1.161-3.081.126-2.079,2.828-.581,4.064-.721,1.421-1.689-1.74-2.903-1.742 1.968,4.163 4.698,4.115 7.548,6.968 3.971,7.253 7.616,14.834 11.611,22.062-1.158-8.326-8.635-15.361-11.611-23.804 2.629,1.823 3.092,5.812 5.807,7.548-1.725-4.662-4.188-8.585-7.548-11.612 2.199-.894 2.58,2.279 3.482,3.484 3.045,4.059 7.321,9.56 9.291,15.095 1.264-1.303-1.146-3.856-1.743-5.226 2.376-.812 2.905,5.213 4.645,6.968 .432,2.629-1.593-.889-1.16,1.741 .137,2.71 1.616.473 2.322,2.322v4.064c-1.635.494-2.382,1.876-4.645,1.743 2.239,5.606 3.128,10.191 0,15.676-2.296.026-3.366,1.278-5.226,1.741v5.805c-1.495-5.148-1.425-19.212-5.226-26.707-1.814,3.379 1.242,6.875 1.162,10.452 .023,1.485-.433.708-1.162.58 .959,3.206.35,10.081 2.903,9.871 .388,2.66.425,5.089-1.162,5.226 1.176,2.932 1.384-.78 2.903,4.063-1.212,1.498-3.071,2.349-5.805,2.324-.756,4.082-1.989,7.687-4.065,10.45-2.53.443-5.377-.718-6.386,0-.191,5.118-4.897,10.306-9.87,6.967-1.28,3.45-7.463,4.804-4.645,10.45 1.984-.335 2.702-1.941 5.226-1.741 3.102,2.642-1.061,7.284 1.16,9.289 1.644-.097 2.419-1.065 4.063-1.159 3.153,3.399-1.654,6.789 0,10.451 1.098,1.805 3.673,2.131 4.644,4.063-.28,2.424-1.334,4.082-2.319,5.804 .019,2.883 2.887,2.92 4.063,4.647 .728,4.403-.992,6.359-2.903,8.127 .025,3.652 3.697,3.656 3.484,7.548 2.282.049 4.826,1.264 7.548,1.741 4.928.864 11.616-.22 12.771,4.645-.938-.997-2.429-1.441-4.645-1.163-2.254,1.812-2.896,5.233-5.226,6.97-.308,5.727 2.209,8.627 4.065,12.189 6.14,1.11 4.706-5.353 7.548-7.545 .361,3.884-1.432,8.389-4.646,9.289-2.469.692-5.803-1.105-9.289-1.744-5.628-1.022-11.618-1.006-15.096-2.319-.676,3.775 2.513,3.681 1.743,7.545-.681.095-.491,1.059-.581,1.744-5.009,1.027-3.468,6.671-4.063,11.032-4.725,3.088-5.514,7.12-6.388,13.353h-4.063c-2.37,2.995-.286,10.501-8.127,9.289-.749,3.421-4.621,6.459-8.71,4.645-5.212,4.134-19.022,3.704-23.804-.581-10.017,1.115-12.069-5.736-18.579-8.127 .482-1.517-1.755-3.187 0-4.063-1.884-3.305-10.434-3.652-7.548-10.451 .065-.151 1.75-1.129 1.742-1.162-.329-1.5-3.002-2.112-4.064-4.063-1.845-3.393-1.466-6.542.581-9.87-5.175-4.688-6.05-11.784 0-16.259-1.781-5.722-6.404-7.08-14.515-8.126-3.721-.482-7.52.15-9.87-2.322-1.017-1.07-3.29-8.11-2.322-12.192 .723-3.048 4.139-5.34 5.806-6.967 6.872.288 12.965,1.355 19.159,2.322 2.618-.674 3.292-3.289 6.387-3.482-.246-1.215.398-1.54.581-2.325-.674-2.424-1.861-4.332-2.903-6.385 .979-1.538 1.343-3.688 2.322-5.227 3.123-.784 6.146,1.245 7.548-1.74-.723-2.568-1.538-5.042-2.903-6.97 .633-1.493 1.467-2.787 2.903-3.482 2.376.14 3.27,1.763 5.806,1.744 1.73-3.943-3.331-11.522 3.483-11.614 3.376,7.657 6.166,15.897 11.031,22.062 2.765-5.438-3.952-11.027-4.645-16.837-1.108-1.089-1.051.346-2.903,0 1.282-1.039 1.417-3.227 2.322-4.644-5.55-.929-7.717-3.863-8.128-8.709-2.04,1.814-6.745,2.43-9.289.581-1.047-2.63-.79-6.565-1.742-9.29-2.744.443-7.499,2.845-7.548-1.741 2.171,1.627 4.471.92 6.968,0 2.46.442 3.099,2.706 4.645,4.063 .095,1.836-1.544,1.94-1.161,4.064 .236,1.699 1.987,1.884 2.902,2.903 1.864-.459 2.537-2.108 4.064-2.903 2.742-.032 3.188,2.231 5.226,2.903-1.697,1.744-1.422,5.308 1.161,5.806 3.144-.728 3.104-4.636 8.128-3.483 1.907,1.577 1.369,5.598 4.064,6.387 4.126-.714 3.13-6.547 9.291-5.226 1.394,1.702 3.175,3.016 4.063,5.226 2.562-.922 4.727-2.241 4.063-6.387 3.962-2.088 6.442.93 9.289,1.741 1.585.423 1.169-1.154 2.324-1.161-.681-5.129.799-8.103 4.063-9.289 2.183,1.641 7.007,2.914 8.127-.581 1.479,1.002 2.254-.884 2.324,1.161 2.149-.791 1.262-1.017 1.739-3.483 1.563.686 0,3.027 0,4.064 2.131-1.354 1.488-5.481 2.324-8.128 1.791,2.638-1.243,9.792-2.324,13.354 4.573-3.935 5.547-14.374 4.644-20.322 1.187-1.166 1.14.258 2.325.582-.18-3.277 1.03-5.163.581-8.709-.771,1.526-2.247,1.454-1.743-1.161-2.041,2.259 1.034,6.808-.581,8.709-3.974-2.001-3.336-8.804.581-10.452 1.367-.013 1.71,1 3.484.582 1.019-.528 1.061-2.034 1.741-2.904-.055-2.655-3.188-2.231-4.063-4.063 .638-2.265.396-5.408 1.16-7.548 3.265.556 4.63-.788 6.388-1.742 .841-4.712-2.064-5.676-5.226-6.385 .874-2.635.378-4.763 0-7.548 1.535-.979 3.688-1.343 5.226-2.322 .844-4.909-1.833-6.296-6.388-5.806-.976-1.732-1.446-3.972-2.322-5.807 .403-2.5 3.421-2.386 4.063-4.645 .971-2.187-2.698-2.644-1.16-3.483 4.548-.64 5.7,6.519 9.87,8.128-.479,1.642.817,1.505.581,2.903-2.859-2.753-4.309-6.916-8.125-8.713zm17.418,31.352c-.08-1.081-.383-1.939-1.162-2.322-.161,1.324.139,2.183 1.162,2.322zm-6.387-4.063c-1.864-4.633-3.582-9.41-6.386-11.613 .867,4.191-1.857,1.206-2.322,4.064 3.827-.873 5.837,2.468 5.226,5.226-.907-.994-1.52-5.924-2.903-2.904 1.762-.214 1.205,1.891 1.741,2.904-.581.001-.69-.472-1.16-.582 2.062,5.292 3.522,11.185 5.805,16.257 .335-1.021-.702-3.412.581-3.483 .531,3.178.2-1.278 1.162-1.161 .395,3.757-.579,7.544 1.741,11.611 .543-2.698-1.765-5.557-.581-6.967 1.004,1.706.151,5.267 2.322,5.806-.525-8.059-2.952-13.51-5.226-19.158zm3.484,4.644c-1.34.177-.646-1.677-1.741-1.742-.275,1.133 1.561,2.97 1.741,1.742zm-14.515-22.062c-1.696-.431-1.125-3.134-3.482-2.902-.425,2.2 1.793,4.739 3.482,2.902zm4.064,16.257c-.314-2.396-1.182-4.238-2.901-5.226 .739,1.969 1.731,3.685 2.901,5.226zm-4.064-5.226c-.929,2.884-.905,6.868 3.484,6.967-.757-2.727-1.915-5.052-3.484-6.967zm-3.482,21.481c1.861.46 2.535,2.109 4.063,2.904-.13-3.547-.078-7.278-2.322-8.709-1.098,1.418-.021,5.01-1.741,5.805zm4.645.582c.836,1.284 1.415-.731 1.741.58-.421,1.777 1.002,1.708.581,3.483-4.643-1.568-3.612,5.624-3.484,8.129-.428-.789-.461-4.884-1.741-2.903 .763,2.783 1.394,5.905.579,7.548-.87-1.857-.726-7.765-1.741-7.548 .127,6.975.879,11.055 0,15.676 3.06-1.383-.386-6.702 2.322-7.548 .092.684-.1,1.648.581,1.743 .09-.683-.1-1.648.581-1.743 .855,2.792-1.448,2.424-1.162,4.646 3.267-.338-1.668,6.17 1.162,6.967 2.271-3.728 1.938-10.062 2.903-15.096 .09.684-.102,1.648.579,1.743 .907-3.15-1.803-11.371.581-8.709-.522-3.542-.694-7.432-2.322-9.871-.316.844.678,3.002-.581,2.904-.147-3.978-1.534-3.978-.579-.001zm11.611,3.483c-1.002-5.3-1.708.41 0,0zm-1.162,2.902c.12-1.667-.146-2.948-1.16-3.483 .061,1.487.328,2.769 1.16,3.483zm-16.256,15.677c.791-.74.897-2.844-.581-2.903 .316.843-.679,3 .581,2.903zm9.289,87.089c2.941-1.899 3.811-5.868 6.386-8.129-15.595-2.016-30.331-4.889-46.448-6.386-3.656,2.341-4.956,7.04-5.223,12.771 15.948,1.663 30.822,4.401 46.447,6.389-.033-1.905-1.651-2.222-1.162-4.645zm-72.574-53.996c-1.384-2.932-2.396-6.649-5.225-8.126 .92,4.417 2.31,9.029 4.063,12.771 1.561,3.329 3.81,6.943 6.387,9.289 .306-4.721-3.1-9.436-5.225-13.934zm47.027-17.998c.129-.453.486-.674 1.162-.58-.081-1.082-.383-1.941-1.162-2.323 .756,1.442-1.701,2.409 0,2.903zm1.743-2.322c1.28,1.767-.487,6.676-1.743,4.064-.301.859-.858,1.462-1.16,2.322 3.073-1.316.371.868 1.741,1.741 1.813-1.874 4.099-6.338 3.484-8.709-.106.861-1.403.533-2.322.582zm-2.903,2.903c.432,1.787-1.595,1.115-1.16,2.902 1.441.408 2.457-2.482 1.16-2.902zm-34.835,19.161c.057-1.493 2.267-.832 2.322-2.325-2.063-4.129-4.813-7.571-5.806-12.772-1.357-.191-2.399-.698-3.483-1.161 1.603,6.137 3.741,11.74 6.967,16.258zm20.32-12.775c.829.139.98.957 1.741,1.161 .43-1.313 2.213-1.27 2.324-2.902-1.099-.13-1.283.654-2.324.58-.128-.45-.015-1.145-.582-1.161 .426,1.583-1.152,1.167-1.159,2.322zm-11.03,3.483c1.883-1.4.127-5.319-2.904-5.224-.148,2.856.514,4.905 2.904,5.224zm13.934-.578c2.166-.737 3.591-2.215 4.645-4.066-2.767.135-3.207,2.601-4.645,4.066zm-29.611,30.767c-.316-1.644-1.818-5.107-2.902-4.063 1.495.827.869,3.775 2.902,4.063zm-4.645,20.322c-2.127.968-3.851,2.343-4.063,5.226 2.007,3.217 5.349,5.103 4.063,11.613-1.993,1.295-5.118,1.46-5.225,4.645 4.009,1.474 8.162,5.679 6.386,11.03-1.095,1.807-4.372,1.434-4.063,4.645 2.592,2.44 7.642,2.421 6.967,8.129-1.381,1.328-3.304,2.112-3.483,4.645 1.982,2.188 3.482,1.313 6.386.581 3.171,3.596-1.011,6.147.581,10.449 2.889.566 3.458-1.187 5.226-1.741 .6,1.526 2.302,1.956 2.902,3.482 .086,1.785-2.042,2.612-.58,4.063 3.322.42 2.484-3.322 5.807-2.901 2.542.782.593,2.466 1.741,4.645 3.271-.406 2.039-5.315 6.386-4.645 1.488.643.914,3.343 3.481,2.901 .657-2.632.967-5.613 3.485-6.384 2.058-.316 1.429,2.056 3.484,1.739 1.691-2.948.756-8.531 4.063-9.87 1.186.418 2.296,1.821 3.482.581-.972-7.163 2.298-10.088 5.807-12.771-1.834-5.859 1.304-9.795 4.063-12.773-.246-2.918-2.318-3.469-1.16-6.386-1.801.057-2.773-.711-4.063-1.162-2.512,11.495-9.812,32.804-21.481,36.577-7.551,2.44-11.269-.801-16.257-4.065-5.938-10.905-9.752-24.594-8.709-40.058 .616-9.136 1.382-19.053 4.065-27.291 1.806-5.547 6.351-15.898 9.289-19.74 2.971-3.884 9.083-9.364 13.354-9.867 17.886-2.105 22.856,24.625 22.644,42.963 2.845-.135 4.394,1.022 7.546.581-.341-3.532-4.196-3.546-2.901-8.711 .586-1.928 3.213-1.818 2.901-4.645-1.812-2.251-4.173-3.954-4.645-7.545 .883-1.441 2.281-2.365 2.324-4.645-.399-2.119-3.666-1.365-4.065-3.484-1.538-3.594.595-5.63.581-9.292-.938-.944-2.429.52-4.645,0-2.105-2.943.814-5.599-.581-8.708-2.852.068-4.916,2.462-6.386-.581-.35-2.164 1.483-3.671 0-5.224-3.053-.534-2.377,2.654-4.645,2.905-2.858-1.741-3.406,1.372-6.388,1.159-1.896-.427-1.939-2.704-4.063-2.903-2.247,3.029-5.32,6.166-9.289,2.903-.442,5.33-1.451,10.629-8.129,8.13-1.859,3.909-.991,7.061-2.322,11.611-1.084.463-2.126.971-3.483,1.159-2.092,4.704 2.208,8.979-1.161,12.195-3.651-6.416-8.613-14.609-9.87-21.484 1.471,3.562 2.789,7.276 5.226,9.87-2.148-4.237-2.895-9.877-6.387-12.771-.13,1.096.654,1.28.581,2.319-1.937-1.051-3.15-1.11-5.807-2.319 1.086,5.687 4.604,8.941 5.807,14.515-4.01-3.539-4.272-10.825-8.129-14.515-.003,9.126 7.002,14.247 6.387,22.06 3.708.357 2.634,5.495 5.806,6.389-.455-2.802 3.323-4.39 5.226-2.903-1.522,1.186-4.696.72-4.645,3.484 1.353,3.442 4.525,7.281 1.161,11.03-5.472-9.044-9.924-19.105-15.096-28.451h-4.063c2.477,9.927 9.503,20.289 13.934,30.192 2.006.61 3.088-2.655 4.642-.581zm-4.644.581c-7.199-7.508-9.916-19.5-15.676-28.448-.634,2.627.674,5.608 1.742,8.126 3.782,8.935 8.681,17.223 13.354,24.385 .211-2.081 1.558-2.126.58-4.063zm28.448-51.092c.347-1.562-1.716-3.627-2.322-2.322 1.365.183.345,2.752 2.322,2.322zm-6.967,8.13c1.342-2.896-1.546-6.048-2.322-8.708-1.7.52-1.784.52-3.483,0 1.26,3.576 1.468,8.207 5.805,8.708zm1.742-7.549c-.041-.37-1.895-1.953-1.742-.581 .148,1.328 1.849,1.536 1.742.581zm3.484,51.674c2.424-2.975 4.81-12.925 12.773-11.614-.031,1.065 2.974,1.966 1.16,2.904-1.936.002-1.982-1.888-4.063-1.741-2.533,1.559-7.686,6.737-8.711,13.934-1.525,10.728 5.11,21.432 10.452,12.192-1.647-.87-3.82-1.212-5.808-1.741-3.994-7.22-1.776-17.603 4.645-20.321 1.399-.591 4.191.312 4.647-1.163 1.002,2.096 4.493,1.701 6.967,2.325 .749-5.85.191-13.274-1.162-18.578-.346-1.352-1.229-4.233-1.741-5.226-1.07-2.074-3.887-2.731-4.063-5.226 7.562,5.209 8.79,16.754 8.708,29.61 3.354-.296 1.906-4.801 1.741-6.97-.218-2.892-.657-6.586-1.16-9.289-1.229-6.591-5.675-12.286-5.805-16.256 2.856,3.143 3.506,8.491 6.384,11.611-.116,6.979 2.744,14.3 2.324,21.484 3.544-1.483 1.38-6.145 1.16-8.71-.536-6.301-1.939-9.521-2.903-13.937-.769-3.529-2.235-9.641-4.645-12.189-2.424-2.566-6.143-2.467-8.708-4.645 6.929-.35 8.821,4.337 12.192,7.545-2.436-5.684-7.071-10.551-15.675-8.708-9.582,2.051-20.426,22.963-23.225,42.382-.51,3.539.051,7.603-.581,11.033-.143.779-1.131,1.535-1.161,2.322-.17,4.646.757,12.188 1.742,17.999 1.69,9.96 5.464,19.131 10.45,22.642 2.507,1.767 7.506,2.419 10.451,1.743 6.007-1.382 11.83-8.372 12.773-13.934-1.902,2.452-3.749,7.726-6.386,7.546 5.594-8.533 10.853-17.402 12.771-29.611-2.335.402-3.312-.555-5.226-.581-.411,1.909-.274,4.371-2.32,4.645-.378-2.31 1.535-2.334 1.16-4.645-1.212-.914-3.855-.401-5.226-1.159-3.399,4.729-10.516,5.738-13.353,11.029-1.207-2.286-3.662-2.286-5.226-4.645-2.737-4.119-2.869-11.221-2.322-16.834 .234-2.41-1.086-6.317 1.741-6.969-.702,3.766-1.746,9.173-1.161,13.933 .728,5.916 3.977,13.169 8.709,10.452-6.76-3.393-7.12-14.976-5.226-23.804 3.814.524 2.069-4.513 4.645-5.226-.073,2.634-1.416,4-1.738,6.391zm27.869-27.871c-.553-2.544-1.108-5.086-2.905-6.385 .85,2.247.921,5.273 2.905,6.385zm2.321,12.194c.137-4.588-.837-8.065-2.32-11.033 .29,4.16.878,8.023 2.32,11.033zm-76.056,0c2.34,6.047 5.404,11.67 8.709,16.837 3.398,5.315 6.537,10.851 11.031,15.096 3.86-1.806.772-5.978-.581-8.129-1.748-2.781-3.72-5.425-5.226-8.127-3.261-5.859-7.201-11.784-9.289-17.418-.033-.354-.086-.688-.58-.581-.939,1.19-2.794,1.461-4.064,2.322zm-26.126,12.192c9.63-.138 20.636,5.762 27.287,0-.908-3.929-2.35-7.326-4.064-10.449-10.523-1.231-26.189-5.655-23.223,10.449zm102.763-5.804c.094-.406-.203-3.381-.581-1.743-.511,2.21.311,2.907.581,1.743zm-58.639,27.867c.107-2.077-1.592-4.489-2.903-6.389-4.391-6.359-8.767-12.752-12.772-18.577 4.114,9.431 9.612,17.481 15.675,24.966zm-35.997-19.159c4.404.723 9.788,3.095 13.354,1.162-6.375-1.368-12.917-2.568-20.32-2.906 1.174,2.579 4.525,1.341 6.966,1.744zm14.515,1.162c3.14,4.134 5.633,9.912 8.709,13.934 2.564,3.35 5.954,6.634 8.708,9.87 2.291,2.688 5.4,9.109 9.87,6.386 .083-3.145-2.967-4.994-4.645-6.967-5.842-6.87-9.953-14.312-15.676-20.903-.615-1.899-1.823-3.208-2.903-4.644-.032-.354-.086-.686-.58-.582-.582,1.549-2.343,1.915-3.483,2.906zm23.224,33.092c-6.813-10.411-16.617-17.832-22.062-29.61-.8.023-1.274-.274-1.742-.581 6.442,11.554 14.074,21.923 23.804,30.191zm23.804-26.71c.075-.761.087-4.2-.581-2.319-.076.763-.088,4.2.581,2.319zm1.741.581c.41-.427 1.447-2.839-.579-2.319 .099.867-.208,2.141.579,2.319zm1.74,7.551c-1.528-1.182.456-5.875-1.74-6.388-.168,2.514.35,7.362 1.74,6.388zm50.514,1.739c-1.949-3.569-7.01-2.447-10.451-2.9-11.728-1.545-23.516-4.25-34.836-5.226-.449.13-1.144.017-1.16.581 13.832,3.339 30.804,4.583 46.447,7.545zm-53.995-5.223c.052-3.972-1.022-.992-.581,1.16 .383,1.868 2.456,5.797 2.903,4.062-1.486-1.029-1.302-3.727-2.322-5.222zm11.611-.581c-.844.318-3.001-.679-2.903.581 .846-.319 3,.678 2.903-.581zm6.386,1.159c-3.719-.668-1.273,1.774 0,0zm7.55,1.163c-.846.316-3.003-.679-2.905.581 .845-.316 3.002.678 2.905-.581zm8.127,1.162c-2.103.326-4.812-1.725-6.388,0 2.603-.827 4.97,1.564 6.388,0zm-78.38,7.545c5.149,6.71 11.219,13.291 16.837,18 3.025,2.534 6.188,4.798 8.709,5.805-.002-1.55 1.834-1.262 1.741-2.901-.803-1.52-2.805-1.838-2.902-4.063-4.005.872-4.976-2.613-8.129-5.807-5.293-5.365-13.691-13.549-16.256-18.578-3.847,2.357-2.418,4.396 0,7.544zm70.253-6.964c-.962-.052-4.425.18-.581.579 1.238.13 7.446,2.133 9.289,1.159-1.633-.542-8.222-1.714-8.708-1.738zm16.253,2.32c-2.353.709-7.063-1.427-6.383,0 2.145.142 10.707,2.117 6.383,0zm7.551-.581c-.846.319-3.003-.675-2.903.581 .843-.317 2.999.68 2.903-.581zm4.063.581c-3.719-.668-1.275,1.774 0,0zm-27.288,13.933c1.408-4.205 3.283-7.939 4.065-12.771-.13-.454-.486-.676-1.162-.581-.253,4.787-3.397,9.753-2.903,13.352zm29.61-11.029c-2.345-2.041-1.37,1.868 0,0zm-99.28,5.807c-.039-1.703-1.328-2.157-2.322-2.903 .038,1.699 1.326,2.155 2.322,2.903zm23.223,21.481c-5.849-4.068-11.579-9.731-16.257-14.515-1.819-1.861-4.2-4.886-5.806-4.645 7.094,6.261 14.109,15.692 22.063,19.16zm-24.966-14.515c8.097,10.288 18.884,17.886 31.352,23.804 2.872-3.272-.411-6.78-5.225-5.807-8.861-6.62-16.975-13.99-24.966-21.479 .153,1.698-1.312,1.781-1.161,3.482zm67.929,5.226c.463,1.413 3.952-6.981 2.324-5.807-.558,2.188-2.944,3.908-2.324,5.807zm-64.445,7.546c9.723,8.277 22.248,13.749 35.416,18.58-.42-1.774 1.002-1.708.581-3.484-2.52-1.897-3.235-.22-6.387,0-10.495-5.179-19.7-11.651-28.448-18.578 .151,1.701-1.314,1.783-1.162,3.482zm6.968,8.71v1.741c8.272,3.728 17.701,9.393 27.868,9.289-10.084-2.509-19.337-8.897-27.868-11.03zm30.19,12.192c1.247,1.077 4.252.392 6.386.581 .423-1.776-1.002-1.708-.579-3.484-2.755.148-3.68,2.128-5.807,2.903zm13.934-.581c.734-2.282-1.37-1.728-2.901-1.741-.215,1.76 1.889,1.205 2.901,1.741z" fill-rule="evenodd"/>
 <path d="m129.125,42.923c.396-1.443 1.77.858 2.322,1.161-.525,1.572-1.297-1.328-2.322-1.161z" fill-rule="evenodd"/>
 <path d="m102.999,45.826c.862.492.839,1.869 1.16,2.902-.45,1.33-1.22-1.809-1.16-2.902z" fill-rule="evenodd"/>
 <path d="m104.159,49.89c2.324,2.531.306,4.548 0,0z" fill-rule="evenodd"/>
 <path d="m129.706,49.89c4.009,3.449 3.596,7.651.581,2.322-.43-.757-.331-1.439-.581-2.322z" fill-rule="evenodd"/>
 <path d="m130.287,70.21c-.055-.046-.562.058-.581,0-1.371-4.11 2.836,3.184.581,0z" fill-rule="evenodd"/>
 <path d="m104.16 78.919c0.939 1.929-1.21 5.738-1.741 8.128-1.076-2.062 1.611-5.34 1.741-8.128z" fill-rule="evenodd"/>
 <path d="m85,109.691c-.223-2.177 2.589-3.309 4.065-4.645 4.415-4.001 8.903-9.971 11.611-16.257 .493.106.548-.227.581-.582-.624,4.164-5.405,11.595-9.87,16.257-2.086,2.18-4.075,3.083-6.387,5.227z" fill-rule="evenodd"/>
 <path d="m47.843,88.208c1.983,4.02 9.039,7.989 16.837,8.129-13.61,1.415-21.296-8.12-24.966-18.58-.924-1.398-2.72-1.924-3.483-3.483-.667-2.383-.19-4.805-.58-6.967-.28-1.551-1.254-2.643-1.161-4.064 .299-4.598 4.545-7.386 5.225-12.192 .763-.697.913-.226 1.742,0 3.092-7.182 9.934-14.894 19.159-16.256 11.069-1.635 18.057,4.242 23.802,10.45 1.914,6.103 5.646,11.46 5.808,18.58 .366,16.065-11.198,30.974-29.61,29.609 .093.68 1.059.49 1.742.581-5.89,1.432-10.898-3.034-14.515-5.807zm17.998,4.065c14.01-.301 24.875-17.008 22.643-31.932-.281-1.871-1.808-4.819-2.903-7.548-2.117-5.271-3.61-7.416-6.967-10.451-3.476-3.142-7.13-5.321-12.193-5.806-11.2-1.071-19.614,6.863-22.643,15.676 3.757.113 8.18-.438 9.87,1.742-2.81-.229-4.738-.937-6.967,0 3.049,2.176 5.458,4.993 6.967,8.709-.618,1.622-2.224,4.318-1.161,5.805 3.832.939 15.889-1.415 19.16,1.161-2.966-.621-5.709.583-8.709.58-3.495-.002-7.791-2.212-10.45.581-.096,1.644 3.579-.483 3.483,1.161-1.071,1.251-5.249-.604-5.226,1.741 6.457-.704 15.775,1.454 20.321-1.161-3.684-.38-8.894.766-11.612-.58 2.911-1.346 8.316-.199 12.193-.581 2.57-4.693.777-12.492-1.743-15.676-3.558-3.142-10.484.64-13.354-2.902 5.82,1.247 7.295-1.587 11.612,0 10.344,3.804 7.604,23.259-1.161,25.546-5.982,1.56-13.809-1.008-21.481,0 4.293,8.251 9.86,14.159 20.321,13.935zm-23.224-38.319c-4.137.402-3.093,5.39-6.387,8.128 1.211,4.163 1.007,7.003 1.742,12.192 1.916,3.309 8.578,1.873 12.772,2.904-.311-2.256-2.715.3-4.645-1.743 1.25-1.46 3.255-2.164 4.645-3.483-.978-4.695.998-5.774.581-11.031-3.487-2.231-4.648-7.362-8.708-6.967zm11.612,20.902c-1.021.333-3.411-.703-3.483.58 1.02-.334 3.411.702 3.483-.58zm0,1.741c-2.775-1.614-1.406,1.904 0,0zm.581.581c3.491-.38 8.506.764 11.031-.582-4.531-.331-6.797-1.01-11.031.582z" fill-rule="evenodd"/>
 <path d="m112.288,102.143v2.903c-2.535-2.584-1.85,1.889-2.322,3.483-1.2-.5-.612-4.042 0-4.645-2.188.907-1.087,5.105-2.322,6.967-1.573-1.583-1.443,1.501-3.484,1.161-.652-1.478-1.425-2.832-2.32-4.064 .526-2.762 3.463-3.115 4.063-5.806 2.758-.224 4.185,1.23 6.385.001zm-4.645,6.967c-.556-1.958 1.778-3.965 0-5.225 .558,1.957-1.779,3.966 0,5.225z" fill-rule="evenodd"/>
</svg>
